<svg width="48" height="48" viewBox="0 0 48 48" fill="none" xmlns="http://www.w3.org/2000/svg">
<path d="M4 10.5H44V37.5H4V10.5ZM24 17.25C25.7681 17.25 27.4638 17.9612 28.714 19.227C29.9643 20.4929 30.6667 22.2098 30.6667 24C30.6667 25.7902 29.9643 27.5071 28.714 28.773C27.4638 30.0388 25.7681 30.75 24 30.75C22.2319 30.75 20.5362 30.0388 19.286 28.773C18.0357 27.5071 17.3333 25.7902 17.3333 24C17.3333 22.2098 18.0357 20.4929 19.286 19.227C20.5362 17.9612 22.2319 17.25 24 17.25ZM12.8889 15C12.8889 16.1935 12.4206 17.3381 11.5871 18.182C10.7536 19.0259 9.62318 19.5 8.44444 19.5V28.5C9.62318 28.5 10.7536 28.9741 11.5871 29.818C12.4206 30.6619 12.8889 31.8065 12.8889 33H35.1111C35.1111 31.8065 35.5794 30.6619 36.4129 29.818C37.2464 28.9741 38.3768 28.5 39.5556 28.5V19.5C38.3768 19.5 37.2464 19.0259 36.4129 18.182C35.5794 17.3381 35.1111 16.1935 35.1111 15H12.8889Z" fill="#F7BE80"/>
</svg>
