<svg width="72" height="72" viewBox="0 0 72 72" fill="none" xmlns="http://www.w3.org/2000/svg">
<g opacity="0.5">
<path d="M55.42 52.58L52.58 55.42C52.2053 55.7925 51.6984 56.0016 51.17 56.0016C50.6416 56.0016 50.1347 55.7925 49.76 55.42L26 31.7C25.3496 31.8884 24.677 31.9893 24 32C22.7266 31.9991 21.4718 31.6942 20.34 31.1107C19.2081 30.5272 18.2319 29.682 17.4925 28.6453C16.7531 27.6085 16.2719 26.4103 16.0888 25.1501C15.9057 23.8899 16.0261 22.6043 16.44 21.4L21.52 26.48L22.58 25.42L25.42 22.58L26.48 21.52L21.4 16.44C22.6043 16.0261 23.8899 15.9057 25.1501 16.0888C26.4103 16.2719 27.6085 16.7531 28.6453 17.4925C29.682 18.2319 30.5272 19.2081 31.1107 20.34C31.6942 21.4718 31.9991 22.7266 32 24C31.9893 24.677 31.8884 25.3496 31.7 26L55.42 49.76C55.7925 50.1347 56.0016 50.6416 56.0016 51.17C56.0016 51.6984 55.7925 52.2053 55.42 52.58ZM16.58 49.76C16.2075 50.1347 15.9984 50.6416 15.9984 51.17C15.9984 51.6984 16.2075 52.2053 16.58 52.58L19.42 55.42C19.7947 55.7925 20.3016 56.0016 20.83 56.0016C21.3584 56.0016 21.8653 55.7925 22.24 55.42L33.18 44.5L27.52 38.84M52 16L44 20V24L39.66 28.34L43.66 32.34L48 28H52L56 20L52 16Z" fill="#EF7D00"/>
</g>
</svg>
