<svg width="72" height="72" viewBox="0 0 72 72" fill="none" xmlns="http://www.w3.org/2000/svg">
<g opacity="0.5">
<path d="M38.26 56.38L35 48.72C38.14 47.56 41.08 46 43.8 44.18L38.26 56.38ZM23.28 37L15.62 33.74L27.82 28.2C26 30.92 24.44 33.86 23.28 37ZM50.44 20C51 20 51.5 20 51.92 20.1C52.26 22.88 51.88 28.6 45.32 35.16C41.92 38.58 37.86 41.2 33.3 42.94L29 38.74C30.84 34.12 33.46 30.06 36.84 26.68C42.36 21.16 47.28 20 50.44 20ZM50.44 16C46.48 16 40.48 17.38 34 23.86C29.62 28.24 27 33.06 25.3 37.28C24.74 38.78 25.12 40.42 26.22 41.54L30.48 45.78C31.24 46.54 32.26 47 33.32 47C33.78 47 34.26 46.88 34.72 46.7C39 45.06 43.76 42.38 48.14 38C59.46 26.68 55.22 16.78 55.22 16.78C55.22 16.78 53.4 16 50.44 16ZM41.08 30.92C39.52 29.36 39.52 26.82 41.08 25.26C42.64 23.7 45.18 23.7 46.74 25.26C48.28 26.82 48.3 29.36 46.74 30.92C45.18 32.48 42.64 32.48 41.08 30.92ZM24.48 56L31.76 48.72C31.08 48.54 30.42 48.24 29.82 47.82L21.66 56H24.48ZM16 56H18.82L28.36 46.48L25.52 43.66L16 53.18V56ZM16 50.34L24.18 42.18C23.76 41.58 23.46 40.94 23.28 40.24L16 47.52V50.34Z" fill="#EF7D00"/>
</g>
</svg>
