<svg width="152" height="50" viewBox="0 0 152 50" fill="none" xmlns="http://www.w3.org/2000/svg">
<g clip-path="url(#clip0_10_902)">
<path d="M42.8615 40.9158L56.8466 6.79199L70.8317 40.9158H67.7327L56.8466 13.9752L45.9654 40.9158H42.8615Z" fill="#EF7D00"/>
<path d="M0.356445 40.916V7.88135H16.7178V10.6982H3.3911V21.0348H16.7178V23.8467H3.3911V38.0992H16.7178V40.916H0.356445Z" fill="white"/>
<path d="M21.5594 35.3318L24.1535 33.9704C24.5941 35.5991 25.4307 36.8714 26.6189 37.7526C27.807 38.6288 29.2129 39.0744 30.8862 39.0744C32.9555 39.0744 34.5842 38.4556 35.7674 37.2278C36.9555 35.9952 37.5297 34.3219 37.5297 32.1239C37.5297 30.5397 37.1337 29.2179 36.3416 28.1635C35.5495 27.109 33.8763 25.8763 31.2822 24.515C27.9406 22.7575 25.7426 21.1734 24.6436 19.8516C23.5446 18.5348 22.9703 16.906 22.9703 15.015C22.9703 12.6833 23.7624 10.7922 25.3466 9.29714C26.9307 7.84665 28.9951 7.09912 31.5495 7.09912C33.1783 7.09912 34.6288 7.45061 35.8614 8.15358C37.0941 8.81199 38.0594 9.86645 38.8515 11.2773L36.5198 12.6833C36.0347 11.7179 35.3763 11.015 34.4951 10.5298C33.6139 10.0001 32.5594 9.7823 31.3713 9.7823C29.7426 9.7823 28.4258 10.2625 27.4555 11.1882C26.4901 12.1536 26.0446 13.4308 26.0446 15.0595C26.0446 17.3912 27.9357 19.5447 31.7624 21.5249C32.4654 21.9209 32.9951 22.1833 33.3466 22.3615C36.1634 23.9457 38.0099 25.3962 38.9753 26.7625C39.901 28.1684 40.3862 29.9259 40.3862 32.1288C40.3862 35.0744 39.5495 37.4506 37.7921 39.1684C36.0743 40.9259 33.6981 41.8071 30.7525 41.8071C28.5545 41.8071 26.708 41.2377 25.1684 40.1783C23.6238 39.0694 22.4357 37.4853 21.5594 35.3318Z" fill="white"/>
<path d="M77.1584 40.916V10.6982H68.0544V7.88135H89.2525V10.6982H80.1485V40.916H77.1584Z" fill="white"/>
<path d="M99.5396 0.198242V49.8022" stroke="white" stroke-width="0.6353"/>
<path d="M109.168 8.04932H111.614V8.53941H109.693V9.94039H111.559V10.4305H109.693V12.282H111.614V12.7721H109.168V8.04932Z" fill="white"/>
<path d="M114.965 8.97028C114.777 8.64355 114.549 8.45543 114.153 8.45543C113.733 8.45543 113.371 8.75741 113.371 9.1881C113.371 9.59405 113.792 9.78216 114.109 9.92572L114.421 10.0643C115.035 10.3317 115.554 10.6386 115.554 11.3911C115.554 12.2178 114.891 12.8515 114.074 12.8515C113.317 12.8515 112.752 12.3614 112.604 11.6287L113.119 11.4851C113.188 11.9653 113.554 12.3614 114.064 12.3614C114.569 12.3614 115.035 11.9752 115.035 11.4406C115.035 10.8911 114.604 10.703 114.168 10.5L113.881 10.3762C113.332 10.1287 112.856 9.84652 112.856 9.1683C112.856 8.43563 113.475 7.96533 114.178 7.96533C114.703 7.96533 115.148 8.23266 115.396 8.69801L114.965 8.97028Z" fill="white"/>
<path d="M120.238 9.08402C119.861 8.69788 119.342 8.46025 118.797 8.46025C117.743 8.46025 116.896 9.37609 116.896 10.4107C116.896 11.4504 117.752 12.3662 118.812 12.3662C119.342 12.3662 119.866 12.1137 120.238 11.7424V12.3909C119.832 12.683 119.332 12.8563 118.827 12.8563C117.495 12.8563 116.366 11.7721 116.366 10.4355C116.366 9.08401 117.475 7.9751 118.827 7.9751C119.351 7.9751 119.817 8.12361 120.238 8.44045V9.08402Z" fill="white"/>
<path d="M121.951 10.8613C121.951 11.2128 121.936 11.6137 122.158 11.9108C122.366 12.1979 122.767 12.3613 123.109 12.3613C123.446 12.3613 123.817 12.2028 124.035 11.9405C124.287 11.6434 124.267 11.2276 124.267 10.8563V8.04443H124.792V10.9999C124.792 11.5147 124.757 11.9207 124.381 12.3068C124.054 12.6583 123.584 12.8464 123.109 12.8464C122.668 12.8464 122.208 12.6781 121.891 12.3662C121.475 11.9702 121.426 11.5395 121.426 10.9999V8.04443H121.951V10.8613Z" fill="white"/>
<path d="M126.045 8.04932H128.49V8.53941H126.569V9.94039H128.436V10.4305H126.569V12.282H128.49V12.7721H126.045V8.04932Z" fill="white"/>
<path d="M130.228 12.2819H131.53V12.772H129.703V8.0542H130.228V12.2819Z" fill="white"/>
<path d="M133.069 11.4306L132.5 12.7722H131.921L134.099 7.82666L136.223 12.7722H135.644L135.089 11.4306H133.069ZM134.089 9.04943L133.282 10.9405H134.876L134.089 9.04943Z" fill="white"/>
<path d="M111.307 18.3663C111.119 18.0395 110.891 17.8514 110.495 17.8514C110.074 17.8514 109.713 18.1534 109.713 18.5841C109.713 18.99 110.134 19.1782 110.45 19.3217L110.767 19.4603C111.381 19.7277 111.896 20.0346 111.896 20.7871C111.896 21.6138 111.233 22.2475 110.416 22.2475C109.658 22.2475 109.094 21.7574 108.946 21.0247L109.46 20.8811C109.53 21.3613 109.901 21.7574 110.406 21.7574C110.911 21.7574 111.376 21.3712 111.376 20.8366C111.376 20.2871 110.946 20.0989 110.51 19.896L110.223 19.7722C109.673 19.5247 109.198 19.2376 109.198 18.5643C109.198 17.8316 109.817 17.3613 110.52 17.3613C111.045 17.3613 111.49 17.6286 111.738 18.094L111.307 18.3663Z" fill="white"/>
<path d="M113.49 20.2524C113.49 20.6039 113.475 21.0049 113.698 21.3019C113.906 21.589 114.302 21.7524 114.649 21.7524C114.985 21.7524 115.356 21.594 115.574 21.3316C115.822 21.0346 115.807 20.6187 115.807 20.2474V17.4355H116.337V20.391C116.337 20.9058 116.302 21.3118 115.926 21.6979C115.599 22.0494 115.129 22.2375 114.654 22.2375C114.208 22.2375 113.753 22.0692 113.436 21.7573C113.02 21.3613 112.97 20.9306 112.97 20.391V17.4355H113.495V20.2524H113.49Z" fill="white"/>
<path d="M118.109 22.1631H117.584V17.4453H118.361C118.767 17.4453 119.188 17.4552 119.53 17.6978C119.881 17.9404 120.059 18.3562 120.059 18.7721C120.059 19.1532 119.906 19.5394 119.609 19.7869C119.292 20.0493 118.881 20.0988 118.49 20.0988H118.109V22.1631ZM118.109 19.6087H118.46C119.045 19.6087 119.54 19.4354 119.54 18.7572C119.54 17.9899 118.921 17.9305 118.307 17.9305H118.109V19.6087Z" fill="white"/>
<path d="M121.045 17.4453H123.495V17.9354H121.574V19.3364H123.441V19.8265H121.574V21.678H123.495V22.1681H121.045V17.4453Z" fill="white"/>
<path d="M125.228 22.1631H124.703V17.4453H125.386C126.282 17.4453 127.114 17.6829 127.114 18.7473C127.114 19.475 126.654 19.9849 125.931 20.0493L127.436 22.1631H126.792L125.366 20.0889H125.233V22.1631H125.228ZM125.228 19.6285H125.391C125.985 19.6285 126.589 19.5146 126.589 18.782C126.589 18.0047 126.02 17.9305 125.386 17.9305H125.228V19.6285Z" fill="white"/>
<path d="M128.951 22.1631H128.426V17.4453H128.951V22.1631Z" fill="white"/>
<path d="M134.901 19.8069C134.901 21.1633 133.787 22.2425 132.441 22.2425C131.094 22.2425 129.98 21.1683 129.98 19.8069C129.98 18.4554 131.094 17.3613 132.441 17.3613C133.787 17.3613 134.901 18.4554 134.901 19.8069ZM130.51 19.8019C130.51 20.8663 131.376 21.7524 132.446 21.7524C133.515 21.7524 134.376 20.8613 134.376 19.8019C134.376 18.7326 133.525 17.8465 132.446 17.8465C131.366 17.8465 130.51 18.7326 130.51 19.8019Z" fill="white"/>
<path d="M136.455 22.1631H135.931V17.4453H136.614C137.51 17.4453 138.342 17.6829 138.342 18.7473C138.342 19.475 137.881 19.9849 137.158 20.0493L138.663 22.1631H138.02L136.594 20.0889H136.46V22.1631H136.455ZM136.455 19.6285H136.619C137.213 19.6285 137.817 19.5146 137.817 18.782C137.817 18.0047 137.247 17.9305 136.614 17.9305H136.455V19.6285Z" fill="white"/>
<path d="M141.881 17.4453H142.772C143.48 17.4453 144.054 17.5394 144.614 18.0146C145.153 18.475 145.396 19.1087 145.396 19.8116C145.396 20.4998 145.149 21.1087 144.629 21.5691C144.064 22.0691 143.5 22.1631 142.762 22.1631H141.886V17.4453H141.881ZM142.792 21.673C143.371 21.673 143.852 21.5938 144.282 21.1829C144.668 20.8216 144.871 20.3265 144.871 19.8018C144.871 19.2621 144.663 18.7424 144.257 18.3859C143.827 18.0047 143.347 17.9305 142.792 17.9305H142.411V21.673H142.792Z" fill="white"/>
<path d="M146.441 17.4453H148.891V17.9354H146.97V19.3364H148.837V19.8265H146.97V21.678H148.891V22.1681H146.441V17.4453Z" fill="white"/>
<path d="M109.876 30.2177L109.307 31.5593H108.733L110.911 26.6138L113.035 31.5593H112.455L111.896 30.2177H109.876ZM110.891 27.8365L110.084 29.7276H111.678L110.891 27.8365Z" fill="white"/>
<path d="M114.381 31.5542H113.856V26.8364H114.54C115.436 26.8364 116.267 27.0741 116.267 28.1384C116.267 28.8661 115.807 29.376 115.084 29.4404L116.584 31.5542H115.941L114.515 29.48H114.381V31.5542ZM114.381 29.0196H114.545C115.139 29.0196 115.743 28.9057 115.743 28.1731C115.743 27.3958 115.173 27.3216 114.54 27.3216H114.381V29.0196Z" fill="white"/>
<path d="M118.693 31.5543H118.168V27.3216H117.03V26.8315H119.846V27.3216H118.693V31.5543Z" fill="white"/>
<path d="M120.693 26.8364H123.139V27.3265H121.218V28.7275H123.084V29.2176H121.218V31.0691H123.139V31.5592H120.693V26.8364Z" fill="white"/>
<path d="M126.168 26.8364H126.777L127.98 28.9404L129.183 26.8364H129.792L128.243 29.5295V31.5592H127.718V29.5295L126.168 26.8364Z" fill="white"/>
<path d="M110.416 40.9503H109.891V36.7176H108.752V36.2275H111.569V36.7176H110.416V40.9503Z" fill="white"/>
<path d="M112.421 36.2324H114.866V36.7225H112.946V38.1186H114.812V38.6087H112.946V40.4602H114.866V40.9502H112.421V36.2324Z" fill="white"/>
<path d="M119.678 37.2623C119.302 36.8762 118.782 36.6385 118.238 36.6385C117.188 36.6385 116.337 37.5544 116.337 38.589C116.337 39.6286 117.193 40.5395 118.252 40.5395C118.787 40.5395 119.302 40.2871 119.678 39.9158V40.5643C119.272 40.8613 118.767 41.0296 118.267 41.0296C116.936 41.0296 115.807 39.9455 115.807 38.6088C115.807 37.2573 116.916 36.1484 118.267 36.1484C118.792 36.1484 119.257 36.3019 119.678 36.6138V37.2623Z" fill="white"/>
<path d="M120.916 36.0298L124.594 39.8862V36.2328H125.119V41.1634L121.436 37.312V40.9506H120.911V36.0298H120.916Z" fill="white"/>
<path d="M131.104 38.5989C131.104 39.9603 129.99 41.0345 128.643 41.0345C127.297 41.0345 126.183 39.9603 126.183 38.5989C126.183 37.2474 127.297 36.1533 128.643 36.1533C129.985 36.1484 131.104 37.2474 131.104 38.5989ZM126.708 38.589C126.708 39.6533 127.574 40.5395 128.643 40.5395C129.713 40.5395 130.579 39.6533 130.579 38.589C130.579 37.5197 129.728 36.6385 128.643 36.6385C127.559 36.6385 126.708 37.5197 126.708 38.589Z" fill="white"/>
<path d="M132.653 40.4602H133.955V40.9502H132.129V36.2324H132.653V40.4602Z" fill="white"/>
<path d="M139.475 38.5989C139.475 39.9603 138.361 41.0345 137.015 41.0345C135.668 41.0345 134.554 39.9603 134.554 38.5989C134.554 37.2474 135.668 36.1533 137.015 36.1533C138.361 36.1484 139.475 37.2474 139.475 38.5989ZM135.079 38.589C135.079 39.6533 135.946 40.5395 137.015 40.5395C138.084 40.5395 138.95 39.6533 138.95 38.589C138.95 37.5197 138.099 36.6385 137.015 36.6385C135.931 36.6385 135.079 37.5197 135.079 38.589Z" fill="white"/>
<path d="M144.891 38.5792C144.901 39.2178 144.832 39.7426 144.406 40.2426C143.975 40.7426 143.317 41.0297 142.658 41.0297C141.332 41.0297 140.228 39.9257 140.228 38.599C140.228 37.2475 141.327 36.1436 142.688 36.1436C143.515 36.1436 144.183 36.5148 144.683 37.1634L144.302 37.5198C143.906 36.9653 143.376 36.6287 142.683 36.6287C141.609 36.6287 140.757 37.5346 140.757 38.599C140.757 39.099 140.955 39.5742 141.307 39.9307C141.653 40.2772 142.148 40.5297 142.648 40.5297C143.47 40.5297 144.332 39.9307 144.332 39.0544H142.931V38.5643H144.891V38.5792Z" fill="white"/>
<path d="M147.015 34.9109L146.059 35.8762L145.748 35.703L146.49 34.6782L147.015 34.9109ZM146.49 40.9505H145.965V36.2327H146.49V40.9505Z" fill="white"/>
<path d="M148.47 39.6088L147.901 40.9504H147.322L149.5 36.0049L151.624 40.9504H151.04L150.485 39.6088H148.47ZM149.49 37.2326L148.683 39.1237H150.277L149.49 37.2326Z" fill="white"/>
</g>
<defs>
<clipPath id="clip0_10_902">
<rect width="151.98" height="50" fill="white"/>
</clipPath>
</defs>
</svg>
