<svg width="271" height="135" viewBox="0 0 271 135" fill="none" xmlns="http://www.w3.org/2000/svg">
<path d="M198.111 134.139C224.878 134.139 246.576 112.44 246.576 85.6738C246.576 58.9071 224.878 37.2085 198.111 37.2085C171.344 37.2085 149.646 58.9071 149.646 85.6738C149.646 112.44 171.344 134.139 198.111 134.139Z" stroke="#EE7203" stroke-miterlimit="10"/>
<path d="M198.111 97.9097C224.878 97.9097 246.576 91.5857 246.576 83.7847C246.576 75.9836 224.878 69.6597 198.111 69.6597C171.344 69.6597 149.646 75.9836 149.646 83.7847C149.646 91.5857 171.344 97.9097 198.111 97.9097Z" stroke="#EE7203" stroke-width="0.5" stroke-miterlimit="10"/>
<path d="M97.1528 -0.458496H0.513903V96.1804H97.1528V-0.458496Z" stroke="#EE7203" stroke-linecap="round" stroke-linejoin="round"/>
<path d="M129.201 47.9654V42.2085H131.257C131.701 42.2085 132.076 42.2918 132.368 42.4516C132.66 42.6182 132.882 42.8404 133.028 43.1182C133.174 43.4029 133.25 43.7154 133.25 44.0696C133.25 44.4238 133.174 44.7432 133.028 45.021C132.882 45.3057 132.66 45.5279 132.361 45.6877C132.063 45.8543 131.694 45.9307 131.25 45.9307H129.84V45.1946H131.174C131.458 45.1946 131.688 45.146 131.861 45.0488C132.035 44.9516 132.167 44.8127 132.25 44.646C132.333 44.4793 132.375 44.2849 132.375 44.0627C132.375 43.8404 132.333 43.6529 132.25 43.4863C132.167 43.3196 132.035 43.1877 131.861 43.0904C131.688 42.9932 131.451 42.9446 131.16 42.9446H130.069V47.9585H129.201V47.9654Z" fill="white"/>
<path d="M135.958 48.0555C135.556 48.0555 135.201 47.9652 134.896 47.7777C134.597 47.5902 134.361 47.3333 134.194 46.9999C134.028 46.6666 133.944 46.2777 133.944 45.8333C133.944 45.3888 134.028 44.993 134.194 44.6597C134.361 44.3263 134.597 44.0624 134.896 43.8749C135.194 43.6874 135.549 43.5972 135.958 43.5972C136.368 43.5972 136.715 43.6874 137.021 43.8749C137.319 44.0624 137.556 44.3194 137.722 44.6597C137.889 44.9999 137.972 45.3888 137.972 45.8333C137.972 46.2777 137.889 46.6666 137.722 46.9999C137.556 47.3333 137.319 47.5902 137.021 47.7777C136.722 47.9652 136.368 48.0555 135.958 48.0555ZM135.958 47.3472C136.222 47.3472 136.438 47.2777 136.611 47.1388C136.785 46.9999 136.91 46.8124 136.993 46.5833C137.076 46.3541 137.118 46.0972 137.118 45.8194C137.118 45.5416 137.076 45.2916 136.993 45.0624C136.91 44.8333 136.785 44.6458 136.611 44.5069C136.438 44.368 136.222 44.2986 135.958 44.2986C135.694 44.2986 135.472 44.368 135.306 44.5069C135.132 44.6458 135.007 44.8333 134.924 45.0624C134.84 45.2916 134.799 45.5486 134.799 45.8194C134.799 46.0902 134.84 46.3541 134.924 46.5833C135.007 46.8124 135.132 46.9999 135.306 47.1388C135.479 47.2777 135.694 47.3472 135.958 47.3472Z" fill="white"/>
<path d="M142.139 44.7016L141.375 44.8335C141.34 44.7363 141.292 44.646 141.222 44.5557C141.153 44.4654 141.063 44.396 140.944 44.3404C140.826 44.2849 140.681 44.2571 140.507 44.2571C140.271 44.2571 140.069 44.3127 139.91 44.4168C139.75 44.521 139.674 44.6599 139.674 44.8266C139.674 44.9724 139.729 45.0904 139.833 45.1738C139.938 45.2641 140.111 45.3335 140.354 45.3891L141.042 45.5488C141.438 45.6391 141.736 45.7849 141.931 45.9724C142.125 46.1599 142.222 46.4099 142.222 46.7154C142.222 46.9724 142.146 47.2016 142 47.4029C141.854 47.6043 141.646 47.7641 141.382 47.8752C141.118 47.9932 140.813 48.0488 140.458 48.0488C139.972 48.0488 139.583 47.9446 139.278 47.7363C138.972 47.5279 138.785 47.2363 138.715 46.8543L139.528 46.7293C139.576 46.9377 139.681 47.0974 139.84 47.2085C140 47.3196 140.201 47.3682 140.458 47.3682C140.736 47.3682 140.951 47.3127 141.118 47.1946C141.285 47.0766 141.368 46.9377 141.368 46.771C141.368 46.6391 141.319 46.521 141.215 46.4307C141.118 46.3404 140.965 46.271 140.757 46.2224L140.028 46.0627C139.625 45.9724 139.326 45.8266 139.132 45.6252C138.938 45.4238 138.847 45.1738 138.847 44.8613C138.847 44.6043 138.917 44.3821 139.063 44.1946C139.208 44.0071 139.403 43.8543 139.653 43.7432C139.903 43.6391 140.194 43.5835 140.514 43.5835C140.979 43.5835 141.347 43.6877 141.618 43.8891C141.889 44.0904 142.063 44.3613 142.153 44.6946L142.139 44.7016Z" fill="white"/>
<path d="M145.16 43.6461V44.3197H142.799V43.6461H145.16ZM143.431 42.6113H144.271V46.6947C144.271 46.8544 144.292 46.9794 144.347 47.0627C144.403 47.1461 144.458 47.2016 144.535 47.2294C144.611 47.2572 144.694 47.2711 144.792 47.2711C144.861 47.2711 144.917 47.2711 144.972 47.2572C145.021 47.2502 145.063 47.2433 145.09 47.2363L145.243 47.9308C145.194 47.9516 145.125 47.9724 145.035 47.9863C144.944 48.0072 144.833 48.0141 144.694 48.0211C144.472 48.0211 144.264 47.9863 144.076 47.903C143.889 47.8197 143.729 47.6947 143.611 47.521C143.493 47.3474 143.438 47.1322 143.438 46.8683V42.6113H143.431Z" fill="white"/>
<path d="M147.854 49.6736C147.514 49.6736 147.215 49.6319 146.972 49.5416C146.729 49.4513 146.528 49.3333 146.368 49.1874C146.208 49.0416 146.097 48.8749 146.021 48.7013L146.743 48.4027C146.792 48.4861 146.861 48.5694 146.944 48.6666C147.028 48.7569 147.146 48.8402 147.292 48.9027C147.438 48.9652 147.632 48.9999 147.861 48.9999C148.181 48.9999 148.444 48.9236 148.653 48.7708C148.861 48.618 148.965 48.368 148.965 48.0347V47.1874H148.91C148.861 47.2777 148.785 47.3819 148.694 47.493C148.597 47.6041 148.472 47.7013 148.306 47.7847C148.139 47.868 147.924 47.9097 147.66 47.9097C147.319 47.9097 147.014 47.8263 146.736 47.6666C146.465 47.5069 146.25 47.2708 146.09 46.9583C145.931 46.6458 145.854 46.2569 145.854 45.7986C145.854 45.3402 145.931 44.9444 146.09 44.618C146.25 44.2916 146.458 44.0416 146.736 43.8611C147.014 43.6805 147.319 43.5972 147.667 43.5972C147.938 43.5972 148.153 43.6388 148.319 43.7291C148.486 43.8194 148.611 43.9236 148.708 44.0416C148.806 44.1597 148.875 44.2638 148.924 44.3541H148.986V43.6527H149.813V48.0694C149.813 48.4374 149.729 48.743 149.556 48.9861C149.382 49.2222 149.153 49.4027 148.854 49.5138C148.563 49.6249 148.229 49.6874 147.861 49.6874L147.854 49.6736ZM147.847 47.2013C148.09 47.2013 148.292 47.1458 148.458 47.0347C148.625 46.9236 148.75 46.7569 148.84 46.5486C148.931 46.3402 148.972 46.0833 148.972 45.7847C148.972 45.4861 148.931 45.2361 148.84 45.0138C148.757 44.7916 148.625 44.618 148.458 44.493C148.292 44.368 148.083 44.3055 147.84 44.3055C147.597 44.3055 147.375 44.368 147.208 44.4999C147.042 44.6319 146.91 44.8055 146.826 45.0277C146.743 45.2499 146.701 45.4999 146.701 45.7777C146.701 46.0555 146.743 46.3124 146.833 46.5208C146.917 46.7361 147.049 46.9027 147.215 47.0208C147.382 47.1388 147.597 47.2013 147.84 47.2013H147.847Z" fill="white"/>
<path d="M150.931 47.9654V43.646H151.743V44.3335H151.785C151.861 44.1043 152 43.9168 152.201 43.7849C152.403 43.6529 152.625 43.5835 152.882 43.5835C152.938 43.5835 153 43.5835 153.069 43.5835C153.139 43.5835 153.201 43.5904 153.236 43.5974V44.4029C153.236 44.4029 153.146 44.3821 153.056 44.3682C152.972 44.3543 152.882 44.3474 152.799 44.3474C152.597 44.3474 152.424 44.3891 152.271 44.4724C152.118 44.5557 151.993 44.6738 151.903 44.8196C151.813 44.9654 151.771 45.1321 151.771 45.3196V47.9585H150.931V47.9654Z" fill="white"/>
<path d="M155.188 48.0626C154.917 48.0626 154.667 48.0139 154.444 47.9098C154.222 47.8056 154.049 47.6598 153.917 47.4653C153.785 47.2709 153.722 47.0348 153.722 46.7501C153.722 46.507 153.771 46.3056 153.861 46.1459C153.951 45.9862 154.083 45.8612 154.243 45.7709C154.403 45.6806 154.583 45.6112 154.778 45.5626C154.972 45.5139 155.174 45.4792 155.382 45.4584C155.639 45.4306 155.847 45.4028 156.014 45.382C156.181 45.3612 156.292 45.3334 156.368 45.2848C156.444 45.2431 156.479 45.1667 156.479 45.0626V45.0417C156.479 44.7987 156.41 44.6042 156.271 44.4723C156.132 44.3403 155.931 44.2709 155.66 44.2709C155.389 44.2709 155.153 44.3334 154.993 44.4584C154.833 44.5834 154.722 44.7223 154.66 44.8751L153.868 44.6945C153.965 44.4306 154.097 44.2223 154.278 44.0556C154.458 43.8959 154.667 43.7778 154.903 43.7014C155.139 43.6251 155.389 43.5903 155.646 43.5903C155.819 43.5903 156 43.6112 156.194 43.6528C156.389 43.6945 156.569 43.7639 156.743 43.8751C156.91 43.9792 157.049 44.132 157.16 44.3334C157.271 44.5348 157.319 44.7848 157.319 45.1042V47.9723H156.5V47.382H156.465C156.41 47.4931 156.326 47.5973 156.222 47.7014C156.111 47.8056 155.972 47.8959 155.806 47.9653C155.632 48.0348 155.431 48.0695 155.194 48.0695L155.188 48.0626ZM155.368 47.3889C155.597 47.3889 155.799 47.3403 155.965 47.2501C156.132 47.1598 156.257 47.0348 156.347 46.8889C156.438 46.7431 156.479 46.5834 156.479 46.4098V45.8542C156.479 45.8542 156.389 45.9098 156.306 45.9376C156.222 45.9653 156.125 45.9862 156.014 46.0001C155.903 46.0209 155.799 46.0348 155.694 46.0487C155.59 46.0626 155.507 46.0764 155.438 46.0834C155.278 46.1042 155.125 46.1389 154.993 46.1876C154.861 46.2362 154.75 46.3056 154.674 46.3959C154.597 46.4862 154.556 46.6042 154.556 46.757C154.556 46.9653 154.632 47.1251 154.785 47.2292C154.938 47.3334 155.132 47.3889 155.375 47.3889H155.368Z" fill="white"/>
<path d="M160.056 48.0484C159.708 48.0484 159.396 47.9581 159.125 47.7776C158.854 47.597 158.639 47.3401 158.486 47.0067C158.333 46.6734 158.257 46.2776 158.257 45.8053C158.257 45.3331 158.333 44.9373 158.493 44.6109C158.653 44.2776 158.861 44.0276 159.139 43.847C159.41 43.6734 159.722 43.5831 160.069 43.5831C160.34 43.5831 160.556 43.6248 160.715 43.7151C160.882 43.8053 161.007 43.9095 161.097 44.0276C161.188 44.1456 161.257 44.2498 161.313 44.3401H161.361V42.2012H162.201V47.9581H161.382V47.2845H161.313C161.264 47.3748 161.188 47.4789 161.097 47.597C161 47.7151 160.875 47.8192 160.708 47.9095C160.542 47.9998 160.333 48.0414 160.069 48.0414L160.056 48.0484ZM160.243 47.3331C160.486 47.3331 160.688 47.2706 160.854 47.1387C161.021 47.0067 161.146 46.8331 161.236 46.6039C161.326 46.3748 161.368 46.1109 161.368 45.8053C161.368 45.4998 161.326 45.2428 161.236 45.0206C161.146 44.7984 161.021 44.6178 160.854 44.4928C160.688 44.3678 160.479 44.3053 160.236 44.3053C159.993 44.3053 159.771 44.3678 159.604 44.4998C159.438 44.6317 159.306 44.8123 159.222 45.0345C159.139 45.2637 159.097 45.5206 159.097 45.8053C159.097 46.0901 159.139 46.3539 159.229 46.5831C159.319 46.8123 159.444 46.9928 159.611 47.1317C159.778 47.2706 159.993 47.3331 160.236 47.3331H160.243Z" fill="white"/>
<path d="M165.208 48.0555C164.806 48.0555 164.451 47.9652 164.146 47.7777C163.84 47.5902 163.611 47.3333 163.444 46.9999C163.278 46.6666 163.194 46.2777 163.194 45.8333C163.194 45.3888 163.278 44.993 163.444 44.6597C163.611 44.3263 163.847 44.0624 164.146 43.8749C164.444 43.6874 164.799 43.5972 165.208 43.5972C165.618 43.5972 165.965 43.6874 166.271 43.8749C166.569 44.0624 166.806 44.3194 166.972 44.6597C167.139 44.9999 167.222 45.3888 167.222 45.8333C167.222 46.2777 167.139 46.6666 166.972 46.9999C166.806 47.3333 166.569 47.5902 166.271 47.7777C165.972 47.9652 165.618 48.0555 165.208 48.0555ZM165.208 47.3472C165.472 47.3472 165.688 47.2777 165.861 47.1388C166.035 46.9999 166.16 46.8124 166.243 46.5833C166.326 46.3541 166.368 46.0972 166.368 45.8194C166.368 45.5416 166.326 45.2916 166.243 45.0624C166.16 44.8333 166.035 44.6458 165.861 44.5069C165.688 44.368 165.472 44.2986 165.208 44.2986C164.944 44.2986 164.722 44.368 164.549 44.5069C164.375 44.6458 164.25 44.8333 164.167 45.0624C164.083 45.2916 164.042 45.5486 164.042 45.8194C164.042 46.0902 164.083 46.3541 164.167 46.5833C164.25 46.8124 164.375 46.9999 164.549 47.1388C164.722 47.2777 164.938 47.3472 165.208 47.3472Z" fill="white"/>
<path d="M172.118 48.0556C171.694 48.0556 171.326 47.9653 171.021 47.7778C170.715 47.5973 170.479 47.3403 170.313 47.007C170.146 46.6737 170.062 46.2848 170.062 45.8334C170.062 45.382 170.146 45.0001 170.313 44.6667C170.479 44.3264 170.708 44.0695 171.007 43.8751C171.306 43.6806 171.653 43.5903 172.056 43.5903C172.299 43.5903 172.535 43.632 172.764 43.7084C172.993 43.7917 173.194 43.9167 173.382 44.0903C173.563 44.2639 173.708 44.4862 173.813 44.7639C173.917 45.0417 173.972 45.3751 173.972 45.7639V46.0626H170.542V45.4306H173.153C173.153 45.2084 173.111 45.0139 173.021 44.8403C172.931 44.6667 172.806 44.5348 172.646 44.4376C172.486 44.3403 172.292 44.2917 172.076 44.2917C171.84 44.2917 171.632 44.3473 171.458 44.4653C171.285 44.5834 171.146 44.7292 171.056 44.9167C170.958 45.1042 170.917 45.2987 170.917 45.5139V46.007C170.917 46.2987 170.965 46.5417 171.069 46.7431C171.174 46.9445 171.313 47.0973 171.5 47.2084C171.681 47.3126 171.896 47.3681 172.146 47.3681C172.306 47.3681 172.451 47.3473 172.583 47.2987C172.715 47.2501 172.826 47.1806 172.924 47.0903C173.021 47.0001 173.09 46.8889 173.146 46.7501L173.944 46.8959C173.882 47.132 173.764 47.3334 173.604 47.507C173.438 47.6806 173.236 47.8195 172.986 47.9167C172.743 48.0139 172.458 48.0626 172.146 48.0626L172.118 48.0556Z" fill="white"/>
<path d="M175.75 45.4028V47.9653H174.91V43.6459H175.715V44.3473H175.771C175.868 44.1181 176.028 43.9376 176.236 43.7987C176.451 43.6598 176.715 43.5903 177.042 43.5903C177.333 43.5903 177.59 43.6528 177.812 43.7778C178.035 43.9028 178.208 44.0834 178.326 44.3264C178.451 44.5695 178.507 44.8681 178.507 45.2223V47.9653H177.667V45.3195C177.667 45.007 177.583 44.7639 177.424 44.5834C177.257 44.4028 177.035 44.3195 176.75 44.3195C176.556 44.3195 176.382 44.3612 176.229 44.4445C176.076 44.5278 175.958 44.6528 175.875 44.8126C175.785 44.9723 175.743 45.1667 175.743 45.3959L175.75 45.4028Z" fill="white"/>
<path d="M185.5 42.2085H186.375V45.9932C186.375 46.396 186.278 46.7502 186.09 47.0627C185.903 47.3752 185.632 47.6182 185.292 47.7918C184.951 47.9654 184.549 48.0557 184.083 48.0557C183.618 48.0557 183.222 47.9654 182.882 47.7918C182.542 47.6113 182.271 47.3682 182.083 47.0627C181.896 46.7502 181.799 46.396 181.799 45.9932V42.2085H182.667V45.9238C182.667 46.1807 182.722 46.4168 182.84 46.6182C182.958 46.8196 183.118 46.9793 183.333 47.0974C183.542 47.2154 183.799 47.271 184.09 47.271C184.382 47.271 184.632 47.2154 184.847 47.0974C185.063 46.9793 185.222 46.8266 185.333 46.6182C185.444 46.4168 185.5 46.1877 185.5 45.9238V42.2085Z" fill="white"/>
<path d="M188.243 42.2085L189.618 44.4585H189.66L191.035 42.2085H192.042L190.25 45.0835L192.056 47.9654H191.042L189.66 45.7432H189.618L188.236 47.9654H187.222L189.056 45.0835L187.229 42.2085H188.236H188.243Z" fill="white"/>
<path d="M195.035 41.9375L193.181 48.8333H192.431L194.285 41.9375H195.035Z" fill="white"/>
<path d="M199.521 42.2085H200.389V45.9932C200.389 46.396 200.292 46.7502 200.104 47.0627C199.917 47.3752 199.646 47.6182 199.306 47.7918C198.965 47.9654 198.562 48.0557 198.097 48.0557C197.632 48.0557 197.236 47.9654 196.896 47.7918C196.556 47.6113 196.285 47.3682 196.097 47.0627C195.91 46.7571 195.813 46.396 195.813 45.9932V42.2085H196.681V45.9238C196.681 46.1807 196.736 46.4168 196.854 46.6182C196.972 46.8196 197.132 46.9793 197.347 47.0974C197.556 47.2154 197.812 47.271 198.097 47.271C198.382 47.271 198.639 47.2154 198.854 47.0974C199.069 46.9793 199.229 46.8266 199.34 46.6182C199.451 46.4168 199.507 46.1877 199.507 45.9238V42.2085H199.521Z" fill="white"/>
<path d="M202.528 42.2085V47.9654H201.66V42.2085H202.528Z" fill="white"/>
<path d="M129.66 57.4998C129.535 57.4998 129.417 57.4928 129.319 57.472C129.222 57.4512 129.139 57.4303 129.09 57.4095L129.292 56.722C129.444 56.7637 129.583 56.7845 129.701 56.7776C129.819 56.7706 129.931 56.729 130.021 56.6456C130.111 56.5623 130.194 56.4234 130.264 56.2359L130.368 55.9512L128.792 51.5762H129.694L130.785 54.9303H130.826L131.917 51.5762H132.819L131.042 56.472C130.958 56.6942 130.854 56.8887 130.729 57.0415C130.604 57.2012 130.451 57.3123 130.271 57.3956C130.097 57.472 129.889 57.5137 129.66 57.5137V57.4998Z" fill="white"/>
<path d="M137.646 55.8819H135.785V50.125H137.708C138.271 50.125 138.757 50.2431 139.16 50.4722C139.563 50.7014 139.875 51.0278 140.09 51.4583C140.306 51.8889 140.417 52.4028 140.417 53C140.417 53.5972 140.306 54.1181 140.09 54.5486C139.875 54.9792 139.556 55.3125 139.146 55.5417C138.736 55.7708 138.236 55.8889 137.653 55.8889L137.646 55.8819ZM136.653 55.125H137.597C138.035 55.125 138.403 55.0417 138.688 54.875C138.979 54.7083 139.194 54.4653 139.34 54.1528C139.486 53.8403 139.556 53.4514 139.556 52.9931C139.556 52.5347 139.486 52.1597 139.34 51.8403C139.194 51.5278 138.986 51.2847 138.701 51.125C138.417 50.9653 138.069 50.8819 137.646 50.8819H136.646V55.1181L136.653 55.125Z" fill="white"/>
<path d="M143.285 55.9653C142.861 55.9653 142.493 55.875 142.188 55.6875C141.882 55.5069 141.646 55.25 141.479 54.9167C141.313 54.5833 141.229 54.1944 141.229 53.7431C141.229 53.2917 141.313 52.9097 141.479 52.5764C141.646 52.2361 141.875 51.9792 142.174 51.7847C142.472 51.5903 142.819 51.5 143.222 51.5C143.465 51.5 143.701 51.5417 143.931 51.6181C144.16 51.7014 144.361 51.8264 144.549 52C144.729 52.1736 144.875 52.3958 144.979 52.6736C145.083 52.9514 145.139 53.2847 145.139 53.6736V53.9722H141.708V53.3403H144.319C144.319 53.1181 144.278 52.9236 144.188 52.75C144.097 52.5764 143.972 52.4444 143.813 52.3472C143.653 52.25 143.458 52.2014 143.243 52.2014C143.007 52.2014 142.799 52.2569 142.625 52.375C142.451 52.4931 142.313 52.6389 142.222 52.8264C142.125 53.0139 142.083 53.2083 142.083 53.4236V53.9167C142.083 54.2083 142.132 54.4514 142.236 54.6528C142.34 54.8542 142.479 55.0069 142.667 55.1181C142.847 55.2222 143.063 55.2778 143.313 55.2778C143.472 55.2778 143.618 55.2569 143.75 55.2083C143.882 55.1597 143.993 55.0903 144.09 55C144.188 54.9097 144.257 54.7986 144.313 54.6597L145.111 54.8056C145.049 55.0417 144.931 55.2431 144.771 55.4167C144.604 55.5903 144.403 55.7292 144.153 55.8264C143.91 55.9236 143.625 55.9722 143.313 55.9722L143.285 55.9653Z" fill="white"/>
<path d="M149.313 52.6181L148.549 52.75C148.514 52.6528 148.465 52.5625 148.396 52.4722C148.326 52.3819 148.236 52.3125 148.118 52.2569C148 52.2014 147.854 52.1736 147.681 52.1736C147.444 52.1736 147.243 52.2292 147.083 52.3333C146.924 52.4375 146.847 52.5764 146.847 52.7431C146.847 52.8889 146.903 53.0069 147.007 53.0903C147.111 53.1806 147.285 53.25 147.528 53.3056L148.215 53.4653C148.611 53.5556 148.91 53.7014 149.104 53.8889C149.299 54.0764 149.396 54.3264 149.396 54.6319C149.396 54.8889 149.319 55.1181 149.174 55.3194C149.028 55.5208 148.819 55.6806 148.556 55.7917C148.292 55.9097 147.986 55.9653 147.632 55.9653C147.146 55.9653 146.757 55.8611 146.451 55.6528C146.146 55.4444 145.958 55.1528 145.889 54.7708L146.701 54.6458C146.75 54.8542 146.854 55.0139 147.014 55.125C147.174 55.2361 147.375 55.2847 147.632 55.2847C147.91 55.2847 148.125 55.2292 148.292 55.1111C148.458 54.9931 148.542 54.8542 148.542 54.6875C148.542 54.5556 148.493 54.4375 148.389 54.3472C148.292 54.2569 148.139 54.1875 147.931 54.1389L147.201 53.9792C146.799 53.8889 146.5 53.7431 146.306 53.5417C146.111 53.3403 146.021 53.0903 146.021 52.7778C146.021 52.5208 146.09 52.2986 146.236 52.1111C146.382 51.9236 146.576 51.7708 146.826 51.6597C147.076 51.5556 147.368 51.5 147.687 51.5C148.153 51.5 148.521 51.6042 148.792 51.8056C149.063 52.0069 149.236 52.2778 149.326 52.6111L149.313 52.6181Z" fill="white"/>
<path d="M151.569 55.9791C151.299 55.9791 151.049 55.9304 150.826 55.8263C150.604 55.7221 150.431 55.5763 150.306 55.3818C150.181 55.1874 150.111 54.9513 150.111 54.6666C150.111 54.4235 150.16 54.2221 150.25 54.0624C150.34 53.9027 150.472 53.7777 150.632 53.6874C150.792 53.5971 150.972 53.5277 151.167 53.4791C151.361 53.4304 151.563 53.3957 151.771 53.3749C152.028 53.3471 152.236 53.3193 152.403 53.2985C152.563 53.2777 152.681 53.2499 152.757 53.2013C152.833 53.1596 152.868 53.0832 152.868 52.9791V52.9582C152.868 52.7152 152.799 52.5207 152.66 52.3888C152.521 52.2568 152.319 52.1874 152.049 52.1874C151.778 52.1874 151.542 52.2499 151.382 52.3749C151.222 52.4999 151.111 52.6388 151.049 52.7916L150.257 52.611C150.347 52.3471 150.486 52.1388 150.667 51.9721C150.847 51.8124 151.056 51.6943 151.292 51.6179C151.528 51.5416 151.778 51.5068 152.035 51.5068C152.208 51.5068 152.389 51.5277 152.583 51.5693C152.778 51.611 152.958 51.6804 153.132 51.7916C153.299 51.8957 153.438 52.0485 153.549 52.2499C153.66 52.4513 153.715 52.7013 153.715 53.0207V55.8888H152.896V55.2985H152.861C152.806 55.4096 152.722 55.5138 152.618 55.6179C152.507 55.7221 152.368 55.8124 152.201 55.8818C152.028 55.9513 151.826 55.986 151.59 55.986L151.569 55.9791ZM151.75 55.3054C151.979 55.3054 152.181 55.2568 152.347 55.1666C152.514 55.0763 152.639 54.9513 152.729 54.8054C152.819 54.6596 152.861 54.4999 152.861 54.3263V53.7707C152.861 53.7707 152.771 53.8263 152.688 53.8541C152.604 53.8818 152.507 53.9027 152.396 53.9166C152.285 53.9374 152.181 53.9513 152.076 53.9652C151.972 53.9791 151.889 53.9929 151.819 53.9999C151.653 54.0207 151.507 54.0554 151.375 54.1041C151.243 54.1527 151.132 54.2221 151.056 54.3124C150.979 54.4027 150.938 54.5207 150.938 54.6735C150.938 54.8818 151.014 55.0416 151.167 55.1457C151.319 55.2499 151.514 55.3054 151.757 55.3054H151.75Z" fill="white"/>
<path d="M154.819 55.8819V51.5625H155.632V52.25H155.674C155.75 52.0208 155.889 51.8333 156.09 51.7014C156.292 51.5694 156.514 51.5 156.771 51.5C156.826 51.5 156.889 51.5 156.958 51.5C157.028 51.5 157.09 51.5069 157.125 51.5139V52.3194C157.125 52.3194 157.035 52.2986 156.944 52.2847C156.861 52.2708 156.771 52.2639 156.688 52.2639C156.486 52.2639 156.313 52.3056 156.16 52.3889C156.007 52.4722 155.882 52.5903 155.792 52.7361C155.701 52.8819 155.66 53.0486 155.66 53.2361V55.875H154.819V55.8819Z" fill="white"/>
<path d="M157.861 55.8819V51.5625H158.674V52.25H158.715C158.792 52.0208 158.931 51.8333 159.132 51.7014C159.333 51.5694 159.556 51.5 159.813 51.5C159.868 51.5 159.931 51.5 160 51.5C160.069 51.5 160.132 51.5069 160.167 51.5139V52.3194C160.167 52.3194 160.069 52.2986 159.986 52.2847C159.903 52.2708 159.813 52.2639 159.729 52.2639C159.528 52.2639 159.354 52.3056 159.201 52.3889C159.049 52.4722 158.924 52.5903 158.833 52.7361C158.743 52.8819 158.701 53.0486 158.701 53.2361V55.875H157.861V55.8819Z" fill="white"/>
<path d="M162.569 55.9652C162.167 55.9652 161.813 55.8749 161.507 55.6874C161.208 55.4999 160.972 55.2429 160.806 54.9096C160.639 54.5763 160.556 54.1874 160.556 53.7429C160.556 53.2985 160.639 52.9027 160.806 52.5693C160.972 52.236 161.208 51.9721 161.507 51.7846C161.806 51.5971 162.16 51.5068 162.569 51.5068C162.979 51.5068 163.326 51.5971 163.632 51.7846C163.938 51.9721 164.167 52.2291 164.333 52.5693C164.5 52.9027 164.583 53.2985 164.583 53.7429C164.583 54.1874 164.5 54.5763 164.333 54.9096C164.167 55.2429 163.931 55.4999 163.632 55.6874C163.333 55.8749 162.979 55.9652 162.569 55.9652ZM162.569 55.2568C162.833 55.2568 163.049 55.1874 163.222 55.0485C163.396 54.9096 163.521 54.7221 163.604 54.4929C163.688 54.2638 163.729 54.0068 163.729 53.7291C163.729 53.4513 163.688 53.2013 163.604 52.9721C163.521 52.7429 163.396 52.5554 163.222 52.4166C163.049 52.2777 162.833 52.2082 162.569 52.2082C162.306 52.2082 162.083 52.2777 161.917 52.4166C161.743 52.5554 161.618 52.7429 161.535 52.9721C161.451 53.2013 161.41 53.4582 161.41 53.7291C161.41 53.9999 161.451 54.2638 161.535 54.4929C161.618 54.7221 161.743 54.9096 161.917 55.0485C162.09 55.1874 162.306 55.2568 162.569 55.2568Z" fill="white"/>
<path d="M166.354 50.125V55.8819H165.514V50.125H166.354Z" fill="white"/>
<path d="M168.326 50.125V55.8819H167.486V50.125H168.326Z" fill="white"/>
<path d="M171.278 55.9652C170.875 55.9652 170.521 55.8749 170.215 55.6874C169.917 55.4999 169.681 55.2429 169.514 54.9096C169.347 54.5763 169.264 54.1874 169.264 53.7429C169.264 53.2985 169.347 52.9027 169.514 52.5693C169.681 52.236 169.917 51.9721 170.215 51.7846C170.514 51.5971 170.868 51.5068 171.278 51.5068C171.688 51.5068 172.035 51.5971 172.34 51.7846C172.639 51.9721 172.875 52.2291 173.042 52.5693C173.208 52.9027 173.292 53.2985 173.292 53.7429C173.292 54.1874 173.208 54.5763 173.042 54.9096C172.875 55.2429 172.639 55.4999 172.34 55.6874C172.042 55.8749 171.688 55.9652 171.278 55.9652ZM171.278 55.2568C171.542 55.2568 171.757 55.1874 171.931 55.0485C172.104 54.9096 172.229 54.7221 172.313 54.4929C172.396 54.2638 172.438 54.0068 172.438 53.7291C172.438 53.4513 172.396 53.2013 172.313 52.9721C172.229 52.7429 172.104 52.5554 171.931 52.4166C171.757 52.2777 171.542 52.2082 171.278 52.2082C171.014 52.2082 170.792 52.2777 170.618 52.4166C170.444 52.5554 170.319 52.7429 170.236 52.9721C170.153 53.2013 170.111 53.4582 170.111 53.7291C170.111 53.9999 170.153 54.2638 170.236 54.4929C170.319 54.7221 170.444 54.9096 170.618 55.0485C170.792 55.1874 171.007 55.2568 171.278 55.2568Z" fill="white"/>
<path d="M177.514 55.8819L175.917 50.125H176.833L177.958 54.5833H178.014L179.181 50.125H180.083L181.25 54.5833H181.306L182.424 50.125H183.34L181.743 55.8819H180.868L179.66 51.5694H179.618L178.41 55.8819H177.535H177.514Z" fill="white"/>
<path d="M185.5 55.9653C185.076 55.9653 184.708 55.875 184.403 55.6875C184.097 55.5069 183.861 55.25 183.694 54.9167C183.528 54.5833 183.444 54.1944 183.444 53.7431C183.444 53.2917 183.528 52.9097 183.694 52.5764C183.861 52.2361 184.09 51.9792 184.389 51.7847C184.688 51.5903 185.035 51.5 185.438 51.5C185.681 51.5 185.917 51.5417 186.146 51.6181C186.375 51.7014 186.576 51.8264 186.764 52C186.944 52.1736 187.09 52.3958 187.194 52.6736C187.299 52.9514 187.354 53.2847 187.354 53.6736V53.9722H183.924V53.3403H186.535C186.535 53.1181 186.493 52.9236 186.403 52.75C186.312 52.5764 186.188 52.4444 186.028 52.3472C185.868 52.25 185.674 52.2014 185.458 52.2014C185.222 52.2014 185.014 52.2569 184.84 52.375C184.667 52.4931 184.528 52.6389 184.438 52.8264C184.34 53.0139 184.299 53.2083 184.299 53.4236V53.9167C184.299 54.2083 184.347 54.4514 184.451 54.6528C184.556 54.8542 184.694 55.0069 184.882 55.1181C185.062 55.2222 185.278 55.2778 185.528 55.2778C185.688 55.2778 185.833 55.2569 185.965 55.2083C186.097 55.1597 186.208 55.0903 186.306 55C186.403 54.9097 186.472 54.7986 186.528 54.6597L187.326 54.8056C187.264 55.0417 187.146 55.2431 186.986 55.4167C186.819 55.5903 186.618 55.7292 186.368 55.8264C186.125 55.9236 185.84 55.9722 185.528 55.9722L185.5 55.9653Z" fill="white"/>
<path d="M188.354 55.8819V50.125H189.194V52.2639H189.243C189.292 52.1736 189.361 52.0694 189.451 51.9514C189.542 51.8333 189.674 51.7292 189.833 51.6389C189.993 51.5486 190.215 51.5069 190.479 51.5069C190.826 51.5069 191.139 51.5972 191.41 51.7708C191.681 51.9444 191.896 52.2014 192.056 52.5347C192.215 52.8681 192.292 53.2639 192.292 53.7292C192.292 54.1944 192.215 54.5972 192.056 54.9306C191.903 55.2639 191.687 55.5208 191.417 55.7014C191.146 55.8819 190.833 55.9722 190.486 55.9722C190.222 55.9722 190.007 55.9306 189.847 55.8403C189.681 55.75 189.549 55.6458 189.458 55.5278C189.361 55.4097 189.292 55.3056 189.243 55.2153H189.174V55.8889H188.354V55.8819ZM189.181 53.7222C189.181 54.0278 189.222 54.2917 189.313 54.5208C189.403 54.75 189.528 54.9306 189.694 55.0556C189.861 55.1806 190.062 55.25 190.306 55.25C190.549 55.25 190.764 55.1806 190.937 55.0486C191.104 54.9167 191.236 54.7292 191.319 54.5C191.41 54.2708 191.451 54.0069 191.451 53.7222C191.451 53.4375 191.41 53.1806 191.326 52.9514C191.243 52.7222 191.111 52.5486 190.944 52.4167C190.778 52.2847 190.563 52.2222 190.313 52.2222C190.063 52.2222 189.861 52.2847 189.694 52.4097C189.528 52.5347 189.403 52.7083 189.313 52.9375C189.222 53.1667 189.181 53.4236 189.181 53.7222Z" fill="white"/>
<path d="M195.403 55.8819V50.125H198.972V50.875H196.271V52.6319H198.715V53.375H196.271V55.8819H195.403Z" fill="white"/>
<path d="M199.924 55.8819V51.5625H200.736V52.25H200.778C200.854 52.0208 200.993 51.8333 201.194 51.7014C201.396 51.5694 201.618 51.5 201.875 51.5C201.931 51.5 201.993 51.5 202.063 51.5C202.132 51.5 202.194 51.5069 202.229 51.5139V52.3194C202.229 52.3194 202.139 52.2986 202.049 52.2847C201.965 52.2708 201.875 52.2639 201.792 52.2639C201.59 52.2639 201.417 52.3056 201.264 52.3889C201.111 52.4722 200.986 52.5903 200.896 52.7361C200.806 52.8819 200.764 53.0486 200.764 53.2361V55.875H199.924V55.8819Z" fill="white"/>
<path d="M204.625 55.9652C204.222 55.9652 203.868 55.8749 203.563 55.6874C203.264 55.4999 203.028 55.2429 202.861 54.9096C202.694 54.5763 202.611 54.1874 202.611 53.7429C202.611 53.2985 202.694 52.9027 202.861 52.5693C203.028 52.236 203.264 51.9721 203.563 51.7846C203.861 51.5971 204.215 51.5068 204.625 51.5068C205.035 51.5068 205.382 51.5971 205.688 51.7846C205.986 51.9721 206.222 52.2291 206.389 52.5693C206.556 52.9096 206.639 53.2985 206.639 53.7429C206.639 54.1874 206.556 54.5763 206.389 54.9096C206.222 55.2429 205.986 55.4999 205.688 55.6874C205.389 55.8749 205.035 55.9652 204.625 55.9652ZM204.625 55.2568C204.889 55.2568 205.104 55.1874 205.278 55.0485C205.451 54.9096 205.576 54.7221 205.66 54.4929C205.743 54.2638 205.785 54.0068 205.785 53.7291C205.785 53.4513 205.743 53.2013 205.66 52.9721C205.576 52.7429 205.451 52.5554 205.278 52.4166C205.104 52.2777 204.889 52.2082 204.625 52.2082C204.361 52.2082 204.139 52.2777 203.972 52.4166C203.799 52.5554 203.674 52.7429 203.59 52.9721C203.507 53.2013 203.465 53.4582 203.465 53.7291C203.465 53.9999 203.507 54.2638 203.59 54.4929C203.674 54.7221 203.799 54.9096 203.972 55.0485C204.146 55.1874 204.361 55.2568 204.625 55.2568Z" fill="white"/>
<path d="M208.417 53.3193V55.8818H207.576V51.5624H208.382V52.2638H208.438C208.535 52.0346 208.694 51.8541 208.903 51.7152C209.118 51.5763 209.382 51.5068 209.708 51.5068C210 51.5068 210.257 51.5693 210.479 51.6943C210.701 51.8193 210.875 51.9999 210.993 52.2429C211.111 52.486 211.174 52.7846 211.174 53.1388V55.8818H210.333V53.236C210.333 52.9235 210.25 52.6804 210.09 52.4999C209.931 52.3193 209.701 52.236 209.417 52.236C209.222 52.236 209.049 52.2777 208.896 52.361C208.743 52.4443 208.625 52.5693 208.542 52.7291C208.451 52.8888 208.41 53.0832 208.41 53.3124L208.417 53.3193Z" fill="white"/>
<path d="M214.319 51.5626V52.2362H211.958V51.5626H214.319ZM212.59 50.5278H213.431V54.6112C213.431 54.7709 213.458 54.8959 213.507 54.9792C213.556 55.0626 213.618 55.1181 213.694 55.1459C213.771 55.1737 213.854 55.1876 213.951 55.1876C214.021 55.1876 214.076 55.1876 214.132 55.1737C214.187 55.1598 214.222 55.1598 214.25 55.1528L214.403 55.8473C214.354 55.8681 214.285 55.8889 214.194 55.9028C214.104 55.9237 213.993 55.9306 213.854 55.9376C213.632 55.9376 213.424 55.9028 213.236 55.8195C213.042 55.7362 212.889 55.6112 212.771 55.4376C212.653 55.2639 212.59 55.0487 212.59 54.7848V50.5278Z" fill="white"/>
<path d="M217.41 55.8819V50.125H221.021V50.875H218.278V52.6319H220.833V53.375H218.278V55.1389H221.056V55.8889H217.41V55.8819Z" fill="white"/>
<path d="M222.958 53.3193V55.8818H222.118V51.5624H222.924V52.2638H222.979C223.076 52.0346 223.236 51.8541 223.444 51.7152C223.66 51.5763 223.924 51.5068 224.25 51.5068C224.542 51.5068 224.799 51.5693 225.021 51.6943C225.243 51.8193 225.417 51.9999 225.535 52.2429C225.66 52.486 225.715 52.7846 225.715 53.1388V55.8818H224.875V53.236C224.875 52.9235 224.792 52.6804 224.632 52.4999C224.472 52.3193 224.243 52.236 223.958 52.236C223.764 52.236 223.59 52.2777 223.438 52.361C223.285 52.4443 223.167 52.5693 223.083 52.7291C222.993 52.8888 222.951 53.0832 222.951 53.3124L222.958 53.3193Z" fill="white"/>
<path d="M228.458 55.9654C228.111 55.9654 227.799 55.8751 227.528 55.6946C227.257 55.514 227.042 55.2571 226.889 54.9237C226.736 54.5904 226.66 54.1945 226.66 53.7223C226.66 53.2501 226.736 52.8543 226.896 52.5279C227.056 52.1946 227.264 51.9445 227.542 51.764C227.813 51.5904 228.125 51.5001 228.472 51.5001C228.743 51.5001 228.958 51.5418 229.118 51.6321C229.285 51.7223 229.41 51.8265 229.5 51.9446C229.59 52.0626 229.66 52.1668 229.715 52.2571H229.764V50.1182H230.604V55.8751H229.785V55.2015H229.715C229.667 55.2918 229.59 55.3959 229.5 55.514C229.403 55.6321 229.278 55.7362 229.111 55.8265C228.944 55.9168 228.736 55.9584 228.472 55.9584L228.458 55.9654ZM228.646 55.2501C228.889 55.2501 229.09 55.1876 229.257 55.0557C229.424 54.9237 229.549 54.7501 229.639 54.5209C229.729 54.2918 229.771 54.0279 229.771 53.7223C229.771 53.4168 229.729 53.1598 229.639 52.9376C229.549 52.7154 229.424 52.5348 229.257 52.4098C229.09 52.2848 228.882 52.2223 228.639 52.2223C228.396 52.2223 228.174 52.2848 228.007 52.4168C227.84 52.5487 227.708 52.7293 227.625 52.9515C227.542 53.1807 227.5 53.4376 227.5 53.7223C227.5 54.007 227.542 54.2709 227.632 54.5001C227.722 54.7293 227.847 54.9098 228.014 55.0487C228.181 55.1876 228.396 55.2501 228.639 55.2501H228.646Z" fill="white"/>
<path d="M86.6389 37.3818H89.9306V49.2568C89.9306 50.5624 89.625 51.7013 89.0139 52.6943C88.4028 53.6804 87.5417 54.4513 86.4375 55.0068C85.3333 55.5624 84.0347 55.8402 82.5556 55.8402C81.0764 55.8402 79.7708 55.5624 78.6667 55.0068C77.5625 54.4513 76.7014 53.6804 76.0903 52.6943C75.4792 51.7082 75.1736 50.5624 75.1736 49.2568V37.3818H78.4653V48.986C78.4653 49.7429 78.632 50.4166 78.9653 51.0138C79.2986 51.6041 79.7708 52.0693 80.382 52.4027C80.9931 52.736 81.7153 52.9027 82.5486 52.9027C83.382 52.9027 84.1042 52.736 84.7153 52.4027C85.3264 52.0693 85.7986 51.6041 86.132 51.0138C86.4653 50.4235 86.632 49.7499 86.632 48.986V37.3818H86.6389Z" fill="white"/>
<path d="M96.8125 37.3818V55.5624H93.5208V37.3818H96.8125Z" fill="white"/>
<path d="M67.7847 36.5278L61.9236 58.2987H59.1111L64.9722 36.5278H67.7847Z" fill="white"/>
<path d="M33.4792 37.3818H36.7708V49.2568C36.7708 50.5624 36.4653 51.7013 35.8542 52.6943C35.2431 53.6804 34.382 54.4513 33.2778 55.0068C32.1736 55.5624 30.875 55.8402 29.3958 55.8402C27.9167 55.8402 26.6111 55.5624 25.507 55.0068C24.4028 54.4513 23.5417 53.6804 22.9306 52.6943C22.3195 51.7082 22.0139 50.5624 22.0139 49.2568V37.3818H25.3056V48.986C25.3056 49.7429 25.4722 50.4166 25.8056 51.0138C26.1389 51.6041 26.6111 52.0693 27.2222 52.4027C27.8333 52.736 28.5556 52.9027 29.3889 52.9027C30.2222 52.9027 30.9445 52.736 31.5556 52.4027C32.1667 52.0693 32.6389 51.6041 32.9722 51.0138C33.3056 50.4235 33.4722 49.7499 33.4722 48.986V37.3818H33.4792Z" fill="white"/>
<path d="M43.1111 37.3818L47.1181 44.0416H47.257L51.2778 37.3818H55.0347L49.4306 46.4721L55.1181 55.5624H51.2986L47.25 48.9513H47.1111L43.0625 55.5624H39.2639L45.007 46.4721L39.3333 37.3818H43.1042H43.1111Z" fill="white"/>
<path d="M113.257 60.6738C112.819 60.6738 112.417 60.6391 112.042 60.5697C111.674 60.5002 111.375 60.4238 111.16 60.3336L111.903 57.8266C112.368 57.9655 112.785 58.028 113.153 58.021C113.521 58.021 113.847 57.903 114.125 57.6808C114.403 57.4586 114.646 57.0905 114.84 56.5766L115.118 55.8405L110.174 41.9238H113.583L116.729 52.2224H116.868L120.021 41.9238H123.438L117.979 57.2086C117.722 57.9308 117.389 58.5488 116.965 59.0697C116.542 59.5905 116.035 59.9863 115.424 60.2572C114.819 60.5349 114.09 60.6738 113.25 60.6738H113.257Z" fill="white"/>
<path d="M22.5139 80.5624V62.3818H34.1597V65.1457H25.8056V70.0832H33.3611V72.8471H25.8056V80.5693H22.5139V80.5624Z" fill="white"/>
<path d="M36.8125 80.5624V66.9236H39.9306V69.1944H40.0764C40.3264 68.4097 40.75 67.7986 41.3611 67.368C41.9653 66.9374 42.6597 66.7222 43.4445 66.7222C43.625 66.7222 43.8195 66.7222 44.0417 66.743C44.2639 66.7569 44.4514 66.7777 44.5972 66.8124V69.7708C44.4583 69.7222 44.25 69.6805 43.9514 69.6388C43.6597 69.5972 43.375 69.5833 43.1042 69.5833C42.5208 69.5833 41.9931 69.7083 41.5278 69.9583C41.0625 70.2083 40.6945 70.5555 40.4306 70.9999C40.1667 71.4444 40.0278 71.9583 40.0278 72.5347V80.5486H36.8125V80.5624Z" fill="white"/>
<path d="M52.1111 80.8265C50.7778 80.8265 49.625 80.5348 48.6458 79.9446C47.6667 79.3543 46.9097 78.5418 46.375 77.4862C45.8403 76.4307 45.5695 75.2015 45.5695 73.7918C45.5695 72.3821 45.8333 71.1459 46.375 70.0904C46.9097 69.0279 47.6667 68.2084 48.6458 67.6251C49.625 67.0418 50.7778 66.7432 52.1111 66.7432C53.4445 66.7432 54.5972 67.0348 55.5764 67.6251C56.5556 68.2154 57.3125 69.0348 57.8472 70.0904C58.382 71.1529 58.6528 72.3821 58.6528 73.7918C58.6528 75.2015 58.3889 76.4307 57.8472 77.4862C57.3125 78.5418 56.5556 79.3612 55.5764 79.9446C54.5972 80.5279 53.4445 80.8265 52.1111 80.8265ZM52.132 78.2501C52.8542 78.2501 53.4583 78.0487 53.9445 77.6529C54.4306 77.2501 54.7917 76.7154 55.0347 76.0418C55.2708 75.3682 55.3958 74.6182 55.3958 73.7848C55.3958 72.9515 55.2778 72.1946 55.0347 71.514C54.7917 70.8334 54.4306 70.2987 53.9445 69.8959C53.4583 69.4932 52.8542 69.2918 52.132 69.2918C51.4097 69.2918 50.7778 69.4932 50.2917 69.8959C49.8056 70.2987 49.4375 70.8404 49.2014 71.514C48.9653 72.1946 48.8403 72.9446 48.8403 73.7848C48.8403 74.6251 48.9583 75.3682 49.2014 76.0418C49.4445 76.7154 49.8056 77.2501 50.2917 77.6529C50.7778 78.0557 51.3958 78.2501 52.132 78.2501Z" fill="white"/>
<path d="M64.5764 72.5694V80.5625H61.3611V66.9236H64.4306V69.2431H64.5903C64.9028 68.4792 65.4028 67.875 66.0972 67.4236C66.7847 66.9722 67.6389 66.75 68.6597 66.75C69.6042 66.75 70.4236 66.9514 71.125 67.3542C71.8264 67.7569 72.3681 68.3403 72.757 69.1042C73.1458 69.8681 73.3333 70.7917 73.3264 71.8819V80.5625H70.1111V72.375C70.1111 71.4653 69.875 70.75 69.4028 70.2361C68.9306 69.7222 68.2847 69.4653 67.4514 69.4653C66.8889 69.4653 66.3889 69.5903 65.9583 69.8333C65.5208 70.0764 65.1806 70.4306 64.9375 70.8958C64.6945 71.3611 64.5695 71.9167 64.5695 72.5764L64.5764 72.5694Z" fill="white"/>
<path d="M83.4097 66.9238V69.4099H75.5695V66.9238H83.4097ZM77.507 63.6529H80.7222V76.4516C80.7222 76.8821 80.7917 77.2154 80.9236 77.4377C81.0556 77.6668 81.2361 77.8196 81.4514 77.9029C81.6667 77.9863 81.9167 78.0279 82.1806 78.0279C82.382 78.0279 82.5695 78.0141 82.7361 77.9863C82.9028 77.9585 83.0347 77.9307 83.125 77.9029L83.6667 80.4168C83.4931 80.4793 83.25 80.5418 82.9375 80.6113C82.6181 80.6807 82.2361 80.7224 81.7778 80.7363C80.9722 80.7571 80.25 80.6391 79.6042 80.3682C78.9583 80.0974 78.4514 79.6807 78.0695 79.1113C77.6875 78.5418 77.507 77.8335 77.5139 76.9793V63.646L77.507 63.6529Z" fill="white"/>
<path d="M93.9236 71.6665V74.3123H85.7361V71.6665H93.9236Z" fill="white"/>
<path d="M97.4445 80.5624V62.3818H109.271V65.1457H100.736V70.0832H108.653V72.8471H100.736V77.8124H109.34V80.5763H97.4445V80.5624Z" fill="white"/>
<path d="M115.708 72.5694V80.5625H112.493V66.9236H115.563V69.2431H115.722C116.035 68.4792 116.535 67.875 117.229 67.4236C117.917 66.9722 118.771 66.75 119.792 66.75C120.729 66.75 121.556 66.9514 122.257 67.3542C122.958 67.7569 123.5 68.3403 123.889 69.1042C124.278 69.8681 124.465 70.7917 124.458 71.8819V80.5625H121.243V72.375C121.243 71.4653 121.007 70.75 120.535 70.2361C120.063 69.7222 119.417 69.4653 118.583 69.4653C118.021 69.4653 117.521 69.5903 117.09 69.8333C116.653 70.0764 116.313 70.4306 116.069 70.8958C115.826 71.3611 115.701 71.9167 115.701 72.5764L115.708 72.5694Z" fill="white"/>
<path d="M132.799 80.8054C131.729 80.8054 130.771 80.5277 129.924 79.9791C129.076 79.4305 128.41 78.6318 127.917 77.5832C127.424 76.5346 127.181 75.2638 127.181 73.7638C127.181 72.2638 127.431 70.9652 127.931 69.9235C128.431 68.8818 129.104 68.0902 129.958 67.5555C130.813 67.0207 131.757 66.7499 132.806 66.7499C133.604 66.7499 134.264 66.8818 134.778 67.1527C135.292 67.4235 135.701 67.7429 136 68.1179C136.299 68.4929 136.535 68.8471 136.701 69.1804H136.833V62.3818H140.056V80.5624H136.896V78.4166H136.701C136.535 78.7499 136.299 79.0971 135.979 79.4652C135.667 79.8332 135.25 80.1527 134.736 80.4096C134.222 80.6735 133.576 80.7985 132.792 80.7985L132.799 80.8054ZM133.694 78.1666C134.375 78.1666 134.958 77.9791 135.438 77.611C135.917 77.2429 136.278 76.7221 136.528 76.0624C136.778 75.3957 136.903 74.6249 136.903 73.7429C136.903 72.861 136.778 72.0971 136.535 71.4443C136.292 70.7916 135.931 70.2846 135.451 69.9235C134.972 69.5624 134.389 69.3818 133.701 69.3818C133.014 69.3818 132.389 69.5693 131.91 69.9374C131.431 70.3124 131.069 70.8263 130.826 71.4791C130.583 72.1388 130.465 72.8888 130.465 73.736C130.465 74.5832 130.59 75.3471 130.833 76.0138C131.076 76.6805 131.444 77.2013 131.924 77.5832C132.403 77.9652 133 78.1527 133.701 78.1527L133.694 78.1666Z" fill="white"/>
<path d="M156.007 80.5624H149.847V62.3818H156.132C157.938 62.3818 159.486 62.7429 160.792 63.4721C162.09 64.1943 163.09 65.236 163.785 66.5902C164.479 67.9443 164.833 69.5693 164.833 71.4582C164.833 73.3471 164.486 74.9791 163.785 76.3402C163.083 77.7013 162.076 78.7429 160.757 79.4721C159.438 80.2013 157.861 80.5624 156.014 80.5624H156.007ZM153.139 77.7152H155.847C157.111 77.7152 158.167 77.486 159.014 77.0207C159.861 76.5554 160.493 75.861 160.924 74.9374C161.347 74.0138 161.563 72.8541 161.563 71.4652C161.563 70.0763 161.347 68.9166 160.924 67.9999C160.5 67.0763 159.868 66.3888 159.035 65.9304C158.201 65.4721 157.174 65.2429 155.938 65.2429H153.132V77.7221L153.139 77.7152Z" fill="white"/>
<path d="M173.847 80.8264C172.479 80.8264 171.299 80.5417 170.312 79.9722C169.319 79.4028 168.563 78.5903 168.028 77.5417C167.493 76.4931 167.229 75.25 167.229 73.8264C167.229 72.4028 167.5 71.1944 168.035 70.125C168.569 69.0625 169.319 68.2361 170.285 67.6389C171.25 67.0417 172.382 66.75 173.688 66.75C174.528 66.75 175.319 66.8819 176.069 67.1528C176.819 67.4236 177.479 67.8403 178.056 68.4028C178.632 68.9653 179.09 69.6806 179.417 70.5486C179.75 71.4167 179.917 72.4444 179.917 73.6458V74.6319H168.736V72.4653H176.833C176.833 71.8472 176.694 71.2986 176.431 70.8194C176.167 70.3403 175.806 69.9583 175.34 69.6806C174.875 69.4028 174.333 69.2639 173.722 69.2639C173.063 69.2639 172.486 69.4236 171.993 69.7361C171.493 70.0556 171.111 70.4653 170.833 70.9792C170.556 71.4931 170.417 72.0486 170.41 72.6597V74.5486C170.41 75.3403 170.556 76.0208 170.847 76.5833C171.139 77.1458 171.542 77.5833 172.063 77.8819C172.583 78.1806 173.194 78.3333 173.889 78.3333C174.354 78.3333 174.778 78.2639 175.16 78.1319C175.542 78 175.868 77.7986 176.146 77.5417C176.424 77.2847 176.632 76.9583 176.778 76.5764L179.778 76.9167C179.59 77.7083 179.229 78.4028 178.701 78.9861C178.174 79.5764 177.493 80.0278 176.674 80.3542C175.847 80.6736 174.91 80.8403 173.847 80.8403V80.8264Z" fill="white"/>
<path d="M194.41 66.9238L189.556 80.5627H186.007L181.153 66.9238H184.576L187.708 77.0558H187.847L190.993 66.9238H194.41Z" fill="white"/>
<path d="M202.194 80.8264C200.826 80.8264 199.646 80.5417 198.66 79.9722C197.667 79.4028 196.91 78.5903 196.375 77.5417C195.84 76.4931 195.576 75.25 195.576 73.8264C195.576 72.4028 195.847 71.1944 196.382 70.125C196.917 69.0625 197.667 68.2361 198.632 67.6389C199.597 67.0417 200.729 66.75 202.035 66.75C202.875 66.75 203.667 66.8819 204.417 67.1528C205.167 67.4236 205.826 67.8403 206.403 68.4028C206.979 68.9653 207.438 69.6806 207.764 70.5486C208.097 71.4167 208.264 72.4444 208.264 73.6458V74.6319H197.083V72.4653H205.181C205.181 71.8472 205.042 71.2986 204.778 70.8194C204.514 70.3403 204.153 69.9583 203.688 69.6806C203.222 69.4028 202.681 69.2639 202.069 69.2639C201.41 69.2639 200.833 69.4236 200.34 69.7361C199.84 70.0556 199.458 70.4653 199.181 70.9792C198.903 71.4931 198.764 72.0486 198.757 72.6597V74.5486C198.757 75.3403 198.903 76.0208 199.194 76.5833C199.486 77.1458 199.889 77.5833 200.41 77.8819C200.931 78.1806 201.542 78.3333 202.236 78.3333C202.701 78.3333 203.125 78.2639 203.507 78.1319C203.889 78 204.215 77.7986 204.493 77.5417C204.771 77.2847 204.979 76.9583 205.125 76.5764L208.125 76.9167C207.938 77.7083 207.576 78.4028 207.049 78.9861C206.521 79.5764 205.84 80.0278 205.021 80.3542C204.194 80.6736 203.257 80.8403 202.194 80.8403V80.8264Z" fill="white"/>
<path d="M214.188 62.3818V80.5624H210.972V62.3818H214.188Z" fill="white"/>
<path d="M223.444 80.8265C222.111 80.8265 220.958 80.5348 219.979 79.9446C219 79.3543 218.243 78.5418 217.708 77.4862C217.174 76.4307 216.903 75.2015 216.903 73.7918C216.903 72.3821 217.174 71.1459 217.708 70.0904C218.243 69.0279 219 68.2084 219.979 67.6251C220.958 67.0418 222.111 66.7432 223.444 66.7432C224.778 66.7432 225.931 67.0348 226.91 67.6251C227.889 68.2154 228.646 69.0348 229.181 70.0904C229.715 71.1529 229.986 72.3821 229.986 73.7918C229.986 75.2015 229.715 76.4307 229.181 77.4862C228.646 78.5418 227.889 79.3612 226.91 79.9446C225.931 80.5279 224.778 80.8265 223.444 80.8265ZM223.465 78.2501C224.187 78.2501 224.792 78.0487 225.278 77.6529C225.764 77.2501 226.125 76.7154 226.368 76.0418C226.611 75.3682 226.729 74.6182 226.729 73.7848C226.729 72.9515 226.611 72.1946 226.368 71.514C226.132 70.8334 225.764 70.2987 225.278 69.8959C224.792 69.4932 224.187 69.2918 223.465 69.2918C222.743 69.2918 222.111 69.4932 221.625 69.8959C221.139 70.2987 220.771 70.8404 220.535 71.514C220.299 72.1946 220.174 72.9446 220.174 73.7848C220.174 74.6251 220.292 75.3682 220.535 76.0418C220.778 76.7154 221.139 77.2501 221.625 77.6529C222.111 78.0557 222.729 78.2501 223.465 78.2501Z" fill="white"/>
<path d="M232.694 85.6736V66.9236H235.854V69.1806H236.042C236.208 68.8472 236.444 68.4931 236.743 68.1181C237.042 67.7431 237.451 67.4167 237.965 67.1528C238.479 66.8889 239.139 66.75 239.937 66.75C240.993 66.75 241.944 67.0139 242.792 67.5556C243.639 68.0903 244.312 68.8819 244.819 69.9236C245.319 70.9653 245.569 72.25 245.569 73.7639C245.569 75.2778 245.326 76.5347 244.833 77.5833C244.34 78.6319 243.674 79.4306 242.826 79.9792C241.979 80.5278 241.021 80.8056 239.951 80.8056C239.174 80.8056 238.521 80.6736 238.007 80.4167C237.493 80.1528 237.076 79.8403 236.771 79.4722C236.458 79.1042 236.222 78.75 236.049 78.4236H235.917V85.6875H232.701L232.694 85.6736ZM235.847 73.7431C235.847 74.625 235.972 75.3958 236.222 76.0625C236.472 76.7292 236.84 77.2431 237.312 77.6111C237.792 77.9792 238.368 78.1667 239.049 78.1667C239.729 78.1667 240.354 77.9792 240.833 77.5972C241.312 77.2153 241.674 76.6944 241.924 76.0278C242.174 75.3611 242.292 74.6042 242.292 73.75C242.292 72.8958 242.174 72.1528 241.931 71.4931C241.688 70.8333 241.326 70.3194 240.847 69.9514C240.368 69.5833 239.771 69.3958 239.056 69.3958C238.34 69.3958 237.785 69.5764 237.306 69.9375C236.826 70.2986 236.465 70.8056 236.215 71.4583C235.972 72.1111 235.847 72.875 235.847 73.7569V73.7431Z" fill="white"/>
<path d="M254.347 80.8264C252.979 80.8264 251.799 80.5417 250.812 79.9722C249.819 79.4028 249.063 78.5903 248.528 77.5417C247.993 76.4931 247.729 75.25 247.729 73.8264C247.729 72.4028 248 71.1944 248.535 70.125C249.069 69.0625 249.819 68.2361 250.785 67.6389C251.75 67.0417 252.882 66.75 254.188 66.75C255.028 66.75 255.819 66.8819 256.569 67.1528C257.319 67.4236 257.979 67.8403 258.556 68.4028C259.132 68.9653 259.59 69.6806 259.917 70.5486C260.25 71.4167 260.417 72.4444 260.417 73.6458V74.6319H249.236V72.4653H257.333C257.333 71.8472 257.194 71.2986 256.931 70.8194C256.667 70.3403 256.306 69.9583 255.84 69.6806C255.375 69.4028 254.833 69.2639 254.222 69.2639C253.562 69.2639 252.986 69.4236 252.493 69.7361C251.993 70.0556 251.611 70.4653 251.333 70.9792C251.056 71.4931 250.917 72.0486 250.91 72.6597V74.5486C250.91 75.3403 251.056 76.0208 251.347 76.5833C251.639 77.1458 252.042 77.5833 252.563 77.8819C253.083 78.1806 253.694 78.3333 254.389 78.3333C254.854 78.3333 255.278 78.2639 255.66 78.1319C256.042 78 256.368 77.7986 256.646 77.5417C256.924 77.2847 257.132 76.9583 257.278 76.5764L260.278 76.9167C260.09 77.7083 259.729 78.4028 259.201 78.9861C258.674 79.5764 257.993 80.0278 257.174 80.3542C256.347 80.6736 255.41 80.8403 254.347 80.8403V80.8264Z" fill="white"/>
<path d="M263.125 80.5624V66.9236H266.243V69.1944H266.382C266.632 68.4097 267.056 67.7986 267.667 67.368C268.271 66.9374 268.965 66.7222 269.75 66.7222C269.931 66.7222 270.125 66.7222 270.347 66.743C270.569 66.7569 270.757 66.7777 270.903 66.8124V69.7708C270.764 69.7222 270.549 69.6805 270.257 69.6388C269.965 69.5972 269.681 69.5833 269.41 69.5833C268.826 69.5833 268.299 69.7083 267.833 69.9583C267.368 70.2083 267 70.5555 266.736 70.9999C266.472 71.4444 266.333 71.9583 266.333 72.5347V80.5486H263.118L263.125 80.5624Z" fill="white"/>
</svg>
